<svg xmlns="http://www.w3.org/2000/svg" width="150" height="30" viewBox="0 0 150 30">
  <!-- Google "G" Logo -->
  <path d="M15 15c0-2.8-2.2-5-5-5s-5 2.2-5 5 2.2 5 5 5 5-2.2 5-5zm-5-3c1.7 0 3 1.3 3 3s-1.3 3-3 3-3-1.3-3-3 1.3-3 3-3z" fill="#4285F4"/>
  <!-- Stars -->
  <g transform="translate(25, 5)">
    <path d="M10 15l-5.878 3.09 1.123-6.545L.489 6.91l6.572-.955L10 0l2.939 5.955 6.572.955-4.756 4.635 1.123 6.545z" fill="#FFC107"/>
    <path d="M30 15l-5.878 3.09 1.123-6.545L20.489 6.91l6.572-.955L30 0l2.939 5.955 6.572.955-4.756 4.635 1.123 6.545z" fill="#FFC107"/>
    <path d="M50 15l-5.878 3.09 1.123-6.545L40.489 6.91l6.572-.955L50 0l2.939 5.955 6.572.955-4.756 4.635 1.123 6.545z" fill="#FFC107"/>
    <path d="M70 15l-5.878 3.09 1.123-6.545L60.489 6.91l6.572-.955L70 0l2.939 5.955 6.572.955-4.756 4.635 1.123 6.545z" fill="#FFC107"/>
    <path d="M90 15l-5.878 3.09 1.123-6.545L80.489 6.91l6.572-.955L90 0l2.939 5.955 6.572.955-4.756 4.635 1.123 6.545z" fill="#FFC107"/>
  </g>
</svg>
